<?xml version="1.0" encoding="utf-8"?>
<!-- Generator: Adobe Illustrator 27.0.0, SVG Export Plug-In . SVG Version: 6.00 Build 0)  -->
<svg version="1.1" xmlns="http://www.w3.org/2000/svg" xmlns:xlink="http://www.w3.org/1999/xlink" x="0px" y="0px"
	 viewBox="0 0 141.73 141.73" style="enable-background:new 0 0 141.73 141.73;" xml:space="preserve">
<style type="text/css">
	.st0{fill:#BA3A39;}
	.st1{clip-path:url(#SVGID_00000084500946749335455330000016978892234131750576_);}
	.st2{fill:none;stroke:#FFFFFF;stroke-width:4;stroke-miterlimit:10;}
	.st3{fill:#FFFFFF;stroke:#BA3A39;stroke-miterlimit:10;}
	.st4{clip-path:url(#SVGID_00000115489288957765773310000013598788384720712636_);}
	.st5{fill:none;stroke:#BA3A39;stroke-width:0.75;stroke-miterlimit:10;}
	.st6{fill:#FFFFFF;}
	.st7{fill:#FFFFFF;stroke:#FFFFFF;stroke-miterlimit:10;}
</style>
<g id="Capa_1">
</g>
<g id="Capa_2">
	<path class="st0" d="M116.34,100.99H29.47c-2.86,0-5.18-2.32-5.18-5.18V45.92c0-2.86,2.32-5.18,5.18-5.18h86.87
		c2.86,0,5.18,2.32,5.18,5.18v49.89C121.52,98.67,119.2,100.99,116.34,100.99z"/>
	<g>
		<defs>
			<path id="SVGID_1_" d="M116.34,100.99H29.47c-2.86,0-5.18-2.32-5.18-5.18V45.92c0-2.86,2.32-5.18,5.18-5.18h86.87
				c2.86,0,5.18,2.32,5.18,5.18v49.89C121.52,98.67,119.2,100.99,116.34,100.99z"/>
		</defs>
		<clipPath id="SVGID_00000099651905536062659390000012476802537354575506_">
			<use xlink:href="#SVGID_1_"  style="overflow:visible;"/>
		</clipPath>
		<g style="clip-path:url(#SVGID_00000099651905536062659390000012476802537354575506_);">
			<path class="st2" d="M120.21,41.94c-5.92,5.99-14.71,14.82-25.57,25.57C82.71,79.31,78.9,82.92,73.13,82.99
				c-5.76,0.07-9.79-3.44-21.9-15.11c-7.78-7.5-16.53-16.1-26.04-25.71"/>
			<path class="st2" d="M25.44,99.4c10.05-9.02,20.1-18.03,30.16-27.05"/>
			<path class="st2" d="M120.38,99.28c-10.29-8.94-20.57-17.87-30.86-26.81"/>
		</g>
	</g>
	<g>
		<path class="st3" d="M491.81-61.8h-86.87c-2.86,0-5.18-2.32-5.18-5.18v-49.89c0-2.86,2.32-5.18,5.18-5.18h86.87
			c2.86,0,5.18,2.32,5.18,5.18v49.89C496.99-64.12,494.67-61.8,491.81-61.8z"/>
		<g>
			<defs>
				<path id="SVGID_00000180325668037180746830000012154286677015265954_" d="M491.81-61.8h-86.87c-2.86,0-5.18-2.32-5.18-5.18
					v-49.89c0-2.86,2.32-5.18,5.18-5.18h86.87c2.86,0,5.18,2.32,5.18,5.18v49.89C496.99-64.12,494.67-61.8,491.81-61.8z"/>
			</defs>
			<clipPath id="SVGID_00000017516853591577393710000014639945960460300734_">
				<use xlink:href="#SVGID_00000180325668037180746830000012154286677015265954_"  style="overflow:visible;"/>
			</clipPath>
			<g style="clip-path:url(#SVGID_00000017516853591577393710000014639945960460300734_);">
				<path class="st5" d="M495.68-120.86c-5.92,5.99-14.71,14.82-25.57,25.57c-11.93,11.81-15.74,15.41-21.51,15.48
					c-5.76,0.07-9.79-3.44-21.9-15.11c-7.78-7.5-16.53-16.1-26.04-25.71"/>
				<path class="st5" d="M400.91-63.39c10.05-9.02,20.1-18.03,30.16-27.05"/>
				<path class="st5" d="M495.84-63.51c-10.29-8.94-20.57-17.87-30.86-26.81"/>
			</g>
		</g>
	</g>
	<g>
		<path class="st0" d="M476.94,76.07h-77.84c-3.1,0-5.61-2.51-5.61-5.61V-8.38c0-3.1,2.51-5.61,5.61-5.61h77.84
			c3.1,0,5.61,2.51,5.61,5.61v78.84C482.55,73.55,480.03,76.07,476.94,76.07z"/>
		<g>
			<circle class="st6" cx="415.13" cy="8.88" r="8.38"/>
			<path class="st6" d="M407.6,21.24c5.18,0.05,10.37,0.09,15.55,0.14c-0.04,13.4-0.07,26.8-0.11,40.2c-5.15,0-10.3,0-15.45,0V21.24
				z"/>
			<path class="st6" d="M429.19,21.24v40.34h13.64V36.15c0.99-2.95,3.77-4.95,6.86-4.95c3.15,0,5.97,2.06,6.92,5.09
				c0,8.43,0,16.86,0,25.28c4.23,0,8.45,0,12.68,0c-0.07-10.05-0.14-20.1-0.21-30.15c-0.24-0.67-3.05-8.05-11.08-10.23
				c-8.16-2.21-14.37,2.93-14.88,3.37c0-1.11,0-2.23,0-3.34H429.19z"/>
		</g>
	</g>
	<g>
		<path class="st3" d="M476.94,115.9h-77.84c-3.1,0-5.61-2.51-5.61-5.61V31.45c0-3.1,2.51-5.61,5.61-5.61h77.84
			c3.1,0,5.61,2.51,5.61,5.61v78.84C482.55,113.38,480.03,115.9,476.94,115.9z"/>
		<g>
			<circle class="st0" cx="415.13" cy="48.71" r="8.38"/>
			<path class="st0" d="M407.6,61.06c5.18,0.05,10.37,0.09,15.55,0.14c-0.04,13.4-0.07,26.8-0.11,40.2c-5.15,0-10.3,0-15.45,0V61.06
				z"/>
			<path class="st0" d="M429.19,61.06v40.34h13.64V75.98c0.99-2.95,3.77-4.95,6.86-4.95c3.15,0,5.97,2.06,6.92,5.09
				c0,8.43,0,16.86,0,25.28c4.23,0,8.45,0,12.68,0c-0.07-10.05-0.14-20.1-0.21-30.15c-0.24-0.67-3.05-8.05-11.08-10.23
				c-8.16-2.21-14.37,2.93-14.88,3.37c0-1.11,0-2.23,0-3.34H429.19z"/>
		</g>
	</g>
	<g>
		<circle class="st0" cx="482.55" cy="226.1" r="49.97"/>
		<g>
			<path class="st6" d="M475.38,212.57l-9.18-15.91c-0.67-1.16-0.27-2.64,0.89-3.31l4.49-2.59c1.16-0.67,2.64-0.27,3.31,0.89
				l9.18,15.91c0.67,1.16,0.27,2.64-0.89,3.31l-4.49,2.59C477.53,214.12,476.05,213.73,475.38,212.57z"/>
			<path class="st6" d="M500.79,256.59l-9.18-15.91c-0.67-1.16-0.27-2.64,0.89-3.31l4.49-2.59c1.16-0.67,2.64-0.27,3.31,0.89
				l9.18,15.91c0.67,1.16,0.27,2.64-0.89,3.31l-4.49,2.59C502.94,258.14,501.46,257.74,500.79,256.59z"/>
			<path class="st6" d="M463.37,197.7l9.82,16.87c-0.42,0.27-0.99,0.69-1.53,1.33c-4.34,5.2,1.28,15.67,1.74,16.53
				c0.85,1.55,5.81,10.56,12.75,10.28c1.22-0.05,2.22-0.38,2.88-0.65c3.27,5.65,6.54,11.29,9.82,16.94
				c-1.63,1.16-4.52,2.81-8.14,2.76c-3.89-0.05-7.08-2.05-11.54-6.25c-7.82-7.39-12.85-15.29-16.24-21.63
				c-1.15-2.16-5.45-10.36-7.22-20.88c-0.55-3.28-0.81-6.51,0.91-9.66C458.49,199.92,461.75,198.35,463.37,197.7z"/>
		</g>
	</g>
	<g>
		<circle class="st3" cx="482.55" cy="156.5" r="49.97"/>
		<g>
			<path class="st0" d="M475.38,142.96l-9.18-15.91c-0.67-1.16-0.27-2.64,0.89-3.31l4.49-2.59c1.16-0.67,2.64-0.27,3.31,0.89
				l9.18,15.91c0.67,1.16,0.27,2.64-0.89,3.31l-4.49,2.59C477.53,144.52,476.05,144.12,475.38,142.96z"/>
			<path class="st0" d="M500.79,186.98l-9.18-15.91c-0.67-1.16-0.27-2.64,0.89-3.31l4.49-2.59c1.16-0.67,2.64-0.27,3.31,0.89
				l9.18,15.91c0.67,1.16,0.27,2.64-0.89,3.31l-4.49,2.59C502.94,188.54,501.46,188.14,500.79,186.98z"/>
			<path class="st0" d="M463.37,128.1l9.82,16.87c-0.42,0.27-0.99,0.69-1.53,1.33c-4.34,5.2,1.28,15.67,1.74,16.53
				c0.85,1.55,5.81,10.56,12.75,10.28c1.22-0.05,2.22-0.38,2.88-0.65c3.27,5.65,6.54,11.29,9.82,16.94
				c-1.63,1.16-4.52,2.81-8.14,2.76c-3.89-0.05-7.08-2.05-11.54-6.25c-7.82-7.39-12.85-15.29-16.24-21.63
				c-1.15-2.16-5.45-10.36-7.22-20.88c-0.55-3.28-0.81-6.51,0.91-9.66C458.49,130.31,461.75,128.74,463.37,128.1z"/>
		</g>
	</g>
	<g>
		<path class="st0" d="M464.91,115.7c-6.88-4.32-19.02-13.36-27.07-28.94c-3.22-6.22-9.01-17.44-6.93-31.31
			c0.26-1.72,0.58-3.82,1.52-6.4c4.17-11.54,16.93-23.1,33.07-23.24c18.72-0.17,29.36,15.12,30.44,16.74
			c3.45,5.14,4.69,9.94,5.1,11.8c4.14,18.48-8.37,34.93-14.27,42.68c-3.8,5-10.11,12.08-19.89,18.64c-0.16,0.09-0.51,0.26-0.97,0.27
			C465.44,115.94,465.08,115.78,464.91,115.7z"/>
		<circle class="st7" cx="465.63" cy="58.94" r="13.57"/>
	</g>
	<g>
		<path class="st3" d="M449.82,315.99c-6.88-4.32-19.02-13.36-27.07-28.94c-3.22-6.22-9.01-17.44-6.93-31.31
			c0.26-1.72,0.58-3.82,1.52-6.4c4.17-11.54,16.93-23.1,33.07-23.24c18.72-0.17,29.36,15.12,30.44,16.74
			c3.45,5.14,4.69,9.94,5.1,11.8c4.14,18.48-8.37,34.93-14.27,42.68c-3.8,5-10.11,12.08-19.89,18.64c-0.16,0.09-0.51,0.26-0.97,0.27
			C450.35,316.23,449.98,316.08,449.82,315.99z"/>
		<circle class="st0" cx="451.08" cy="260.61" r="15.09"/>
	</g>
</g>
</svg>
