<?xml version="1.0" encoding="utf-8"?>
<!-- Generator: Adobe Illustrator 27.0.0, SVG Export Plug-In . SVG Version: 6.00 Build 0)  -->
<svg version="1.1" xmlns="http://www.w3.org/2000/svg" xmlns:xlink="http://www.w3.org/1999/xlink" x="0px" y="0px"
	 viewBox="0 0 141.73 141.73" style="enable-background:new 0 0 141.73 141.73;" xml:space="preserve">
<style type="text/css">
	.st0{fill:#BA3A39;}
	.st1{clip-path:url(#SVGID_00000130615571515805222020000010432341569406860161_);}
	.st2{fill:none;stroke:#FFFFFF;stroke-width:0.75;stroke-miterlimit:10;}
	.st3{fill:#FFFFFF;stroke:#BA3A39;stroke-miterlimit:10;}
	.st4{clip-path:url(#SVGID_00000157988416449069527800000002287286736069255078_);}
	.st5{fill:none;stroke:#BA3A39;stroke-width:0.75;stroke-miterlimit:10;}
	.st6{fill:#FFFFFF;}
	.st7{fill:#FFFFFF;stroke:#FFFFFF;stroke-miterlimit:10;}
</style>
<g id="Capa_1">
</g>
<g id="Capa_2">
	<g>
		<path class="st0" d="M481.45-8.6h-86.87c-2.86,0-5.18-2.32-5.18-5.18v-49.89c0-2.86,2.32-5.18,5.18-5.18h86.87
			c2.86,0,5.18,2.32,5.18,5.18v49.89C486.63-10.92,484.31-8.6,481.45-8.6z"/>
		<g>
			<defs>
				<path id="SVGID_1_" d="M481.45-8.6h-86.87c-2.86,0-5.18-2.32-5.18-5.18v-49.89c0-2.86,2.32-5.18,5.18-5.18h86.87
					c2.86,0,5.18,2.32,5.18,5.18v49.89C486.63-10.92,484.31-8.6,481.45-8.6z"/>
			</defs>
			<clipPath id="SVGID_00000119118192581486067740000017385837548004056738_">
				<use xlink:href="#SVGID_1_"  style="overflow:visible;"/>
			</clipPath>
			<g style="clip-path:url(#SVGID_00000119118192581486067740000017385837548004056738_);">
				<path class="st2" d="M485.32-67.65c-5.92,5.99-14.71,14.82-25.57,25.57c-11.93,11.81-15.74,15.41-21.51,15.48
					c-5.76,0.07-9.79-3.44-21.9-15.11c-7.78-7.5-16.53-16.1-26.04-25.71"/>
				<path class="st2" d="M390.55-10.19c10.05-9.02,20.1-18.03,30.16-27.05"/>
				<path class="st2" d="M485.48-10.31c-10.29-8.94-20.57-17.87-30.86-26.81"/>
			</g>
		</g>
	</g>
	<g>
		<path class="st3" d="M491.81-61.8h-86.87c-2.86,0-5.18-2.32-5.18-5.18v-49.89c0-2.86,2.32-5.18,5.18-5.18h86.87
			c2.86,0,5.18,2.32,5.18,5.18v49.89C496.99-64.12,494.67-61.8,491.81-61.8z"/>
		<g>
			<defs>
				<path id="SVGID_00000121253222387839729940000017929132571528231574_" d="M491.81-61.8h-86.87c-2.86,0-5.18-2.32-5.18-5.18
					v-49.89c0-2.86,2.32-5.18,5.18-5.18h86.87c2.86,0,5.18,2.32,5.18,5.18v49.89C496.99-64.12,494.67-61.8,491.81-61.8z"/>
			</defs>
			<clipPath id="SVGID_00000088101183402353425140000006969679935181626765_">
				<use xlink:href="#SVGID_00000121253222387839729940000017929132571528231574_"  style="overflow:visible;"/>
			</clipPath>
			<g style="clip-path:url(#SVGID_00000088101183402353425140000006969679935181626765_);">
				<path class="st5" d="M495.68-120.86c-5.92,5.99-14.71,14.82-25.57,25.57c-11.93,11.81-15.74,15.41-21.51,15.48
					c-5.76,0.07-9.79-3.44-21.9-15.11c-7.78-7.5-16.53-16.1-26.04-25.71"/>
				<path class="st5" d="M400.91-63.39c10.05-9.02,20.1-18.03,30.16-27.05"/>
				<path class="st5" d="M495.84-63.51c-10.29-8.94-20.57-17.87-30.86-26.81"/>
			</g>
		</g>
	</g>
	<g>
		<path class="st0" d="M109.79,115.9H31.95c-3.1,0-5.61-2.51-5.61-5.61V31.45c0-3.1,2.51-5.61,5.61-5.61h77.84
			c3.1,0,5.61,2.51,5.61,5.61v78.84C115.4,113.38,112.89,115.9,109.79,115.9z"/>
		<g>
			<circle class="st6" cx="47.98" cy="48.71" r="8.38"/>
			<path class="st6" d="M40.45,61.06c5.18,0.05,10.37,0.09,15.55,0.14c-0.04,13.4-0.07,26.8-0.11,40.2c-5.15,0-10.3,0-15.45,0V61.06
				z"/>
			<path class="st6" d="M62.04,61.06v40.34h13.64V75.98c0.99-2.95,3.77-4.95,6.86-4.95c3.15,0,5.97,2.06,6.92,5.09
				c0,8.43,0,16.86,0,25.28c4.23,0,8.45,0,12.68,0c-0.07-10.05-0.14-20.1-0.21-30.15c-0.24-0.67-3.05-8.05-11.08-10.23
				c-8.16-2.21-14.37,2.93-14.88,3.37c0-1.11,0-2.23,0-3.34H62.04z"/>
		</g>
	</g>
	<g>
		<path class="st3" d="M476.94,115.9h-77.84c-3.1,0-5.61-2.51-5.61-5.61V31.45c0-3.1,2.51-5.61,5.61-5.61h77.84
			c3.1,0,5.61,2.51,5.61,5.61v78.84C482.55,113.38,480.03,115.9,476.94,115.9z"/>
		<g>
			<circle class="st0" cx="415.13" cy="48.71" r="8.38"/>
			<path class="st0" d="M407.6,61.06c5.18,0.05,10.37,0.09,15.55,0.14c-0.04,13.4-0.07,26.8-0.11,40.2c-5.15,0-10.3,0-15.45,0V61.06
				z"/>
			<path class="st0" d="M429.19,61.06v40.34h13.64V75.98c0.99-2.95,3.77-4.95,6.86-4.95c3.15,0,5.97,2.06,6.92,5.09
				c0,8.43,0,16.86,0,25.28c4.23,0,8.45,0,12.68,0c-0.07-10.05-0.14-20.1-0.21-30.15c-0.24-0.67-3.05-8.05-11.08-10.23
				c-8.16-2.21-14.37,2.93-14.88,3.37c0-1.11,0-2.23,0-3.34H429.19z"/>
		</g>
	</g>
	<g>
		<circle class="st0" cx="453.84" cy="260.31" r="49.97"/>
		<g>
			<path class="st6" d="M446.68,246.78l-9.18-15.91c-0.67-1.16-0.27-2.64,0.89-3.31l4.49-2.59c1.16-0.67,2.64-0.27,3.31,0.89
				l9.18,15.91c0.67,1.16,0.27,2.64-0.89,3.31l-4.49,2.59C448.82,248.33,447.34,247.94,446.68,246.78z"/>
			<path class="st6" d="M472.09,290.8l-9.18-15.91c-0.67-1.16-0.27-2.64,0.89-3.31l4.49-2.59c1.16-0.67,2.64-0.27,3.31,0.89
				l9.18,15.91c0.67,1.16,0.27,2.64-0.89,3.31l-4.49,2.59C474.24,292.35,472.76,291.96,472.09,290.8z"/>
			<path class="st6" d="M434.67,231.92l9.82,16.87c-0.42,0.27-0.99,0.69-1.53,1.33c-4.34,5.2,1.28,15.67,1.74,16.53
				c0.85,1.55,5.81,10.56,12.75,10.28c1.22-0.05,2.22-0.38,2.88-0.65c3.27,5.65,6.54,11.29,9.82,16.94
				c-1.63,1.16-4.52,2.81-8.14,2.76c-3.89-0.05-7.08-2.05-11.54-6.25c-7.82-7.39-12.85-15.29-16.24-21.63
				c-1.15-2.16-5.45-10.36-7.22-20.88c-0.55-3.28-0.81-6.51,0.91-9.66C429.79,234.13,433.05,232.56,434.67,231.92z"/>
		</g>
	</g>
	<g>
		<circle class="st3" cx="453.84" cy="151.67" r="49.97"/>
		<g>
			<path class="st0" d="M446.68,138.14l-9.18-15.91c-0.67-1.16-0.27-2.64,0.89-3.31l4.49-2.59c1.16-0.67,2.64-0.27,3.31,0.89
				l9.18,15.91c0.67,1.16,0.27,2.64-0.89,3.31l-4.49,2.59C448.82,139.69,447.34,139.3,446.68,138.14z"/>
			<path class="st0" d="M472.09,182.16l-9.18-15.91c-0.67-1.16-0.27-2.64,0.89-3.31l4.49-2.59c1.16-0.67,2.64-0.27,3.31,0.89
				l9.18,15.91c0.67,1.16,0.27,2.64-0.89,3.31l-4.49,2.59C474.24,183.71,472.76,183.32,472.09,182.16z"/>
			<path class="st0" d="M434.67,123.27l9.82,16.87c-0.42,0.27-0.99,0.69-1.53,1.33c-4.34,5.2,1.28,15.67,1.74,16.53
				c0.85,1.55,5.81,10.56,12.75,10.28c1.22-0.05,2.22-0.38,2.88-0.65c3.27,5.65,6.54,11.29,9.82,16.94
				c-1.63,1.16-4.52,2.81-8.14,2.76c-3.89-0.05-7.08-2.05-11.54-6.25c-7.82-7.39-12.85-15.29-16.24-21.63
				c-1.15-2.16-5.45-10.36-7.22-20.88c-0.55-3.28-0.81-6.51,0.91-9.66C429.79,125.49,433.05,123.92,434.67,123.27z"/>
		</g>
	</g>
	<g>
		<path class="st0" d="M289.91,325.17c-6.88-4.32-19.02-13.36-27.07-28.94c-3.22-6.22-9.01-17.44-6.93-31.31
			c0.26-1.72,0.58-3.82,1.52-6.4c4.17-11.54,16.93-23.1,33.07-23.24c18.72-0.17,29.36,15.12,30.44,16.74
			c3.45,5.14,4.69,9.94,5.1,11.8c4.14,18.48-8.37,34.93-14.27,42.68c-3.8,5-10.11,12.08-19.89,18.64c-0.16,0.09-0.51,0.26-0.97,0.27
			C290.44,325.41,290.08,325.26,289.91,325.17z"/>
		<circle class="st7" cx="290.63" cy="268.42" r="13.57"/>
	</g>
	<g>
		<path class="st3" d="M376.18,342.56c-6.88-4.32-19.02-13.36-27.07-28.94c-3.22-6.22-9.01-17.44-6.93-31.31
			c0.26-1.72,0.58-3.82,1.52-6.4c4.17-11.54,16.93-23.1,33.07-23.24c18.72-0.17,29.36,15.12,30.44,16.74
			c3.45,5.14,4.69,9.94,5.1,11.8c4.14,18.48-8.37,34.93-14.27,42.68c-3.8,5-10.11,12.08-19.89,18.64c-0.16,0.09-0.51,0.26-0.97,0.27
			C376.71,342.8,376.35,342.64,376.18,342.56z"/>
		<circle class="st0" cx="377.44" cy="287.18" r="15.09"/>
	</g>
</g>
</svg>
